# xmcd
#
# Track frame offsets:
#	150
#	73795
#	119258
#	152520
#	167568
#	219995
#
# Disc length: 3736 seconds
#
# Revision: 0
# Processed by: cddbd v1.5.2PL0 Copyright (c) Steve Scherf et al.
# Submitted via: EasyCDDAExtractor 16.0.6.1
#
DISCID=490e9606
DTITLE=Βυζ. χορωδία υπό Κώστα Ζορμπά - Βυζαντινή μουσική 09-Ψαλμοί Δαυΐδ
DYEAR=1993
DGENRE=Βυζ. Εκκλησιαστική
TTITLE0=Ανοιξαντάρια [ψαλμ. 103, Θ. Φωκαέως, ηχ. πλ. δ']
TTITLE1=Ψαλμός Ν (50) [ήχος β']
TTITLE2=Τυπικά [ψαλμός ΡΓ' 102, στάση α', ηχ. πλ. δ']
TTITLE3=Τυπικά στάση β' [ψαλμός ΠΜΕ' 145, ηχ. β']
TTITLE4=Εξομολογείσθε[ψαλμ. ΡΛΕ' 135, ήχ. α', πλ. δ', πλ. β', βαρ., πρ.]
TTITLE5=Δοξολογία [Γ. Βιολάκη, ήχ. πλ. α'-εναρμόνιος]
EXTD=
EXTT0=
EXTT1=
EXTT2=
EXTT3=
EXTT4=
EXTT5=
PLAYORDER=
